<svg width="200" height="200" viewBox="0 0 24 24" fill="none" xmlns="http://www.w3.org/2000/svg">
  <!-- Percentage Badge/Coin -->
  <circle cx="12" cy="8" r="4" stroke="white" stroke-width="1.5"/>
  <path d="M10.5 6.5L13.5 9.5" stroke="white" stroke-width="1.5" stroke-linecap="round"/>
  <circle cx="11" cy="9" r="0.5" fill="white"/>
  <circle cx="13" cy="7" r="0.5" fill="white"/>

  <!-- Hand -->
  <path d="M19 13V11C19 11 19 10 18 10C17 10 17 11 17 11V13" stroke="white" stroke-width="1.5" stroke-linecap="round" stroke-linejoin="round"/>
  <path d="M5 14V12C5 12 5 11 6 11C7 11 7 12 7 12V14" stroke="white" stroke-width="1.5" stroke-linecap="round" stroke-linejoin="round"/>
  <path d="M5 14C5 14 6 21 12 21C18 21 19 14 19 14" stroke="white" stroke-width="1.5" stroke-linecap="round" stroke-linejoin="round"/>
</svg>
